#Unknown ASF file
:ROOT_YZX
:FOOT_3DOF
:FULLY-SPECIFIED
:DEGREES
648
root 4.39154 17.7578 17.7873 -2.47956 -6.09404 -0.220749
lfemur 0.437644 2.25859 -13.9546
ltibia 55.1542
lfoot 19.6252 0 -17.3291
ltoes -24.7245
rfemur -18.2302 0.093395 26.8817
rtibia 33.3859
rfoot -8.70353 0 -6.83361
rtoes 1.14665
lowerback 10.0139 -2.22034 -3.1038
upperback 0.592715 -3.12336 3.71386
thorax -4.61992 -1.45131 6.08358
lowerneck -12.3176 -8.20279 -17.0821
upperneck 20.0506 -11.4488 15.6592
head 10.366 -5.14645 6.90851
lclavicle -2.84759e-014 6.36111e-015
lhumerus -34.2271 -0.892741 88.7375
lradius 35.1784
lwrist 0.920528
lhand -10.0541 28.6757
lfingers 7.12502
lthumb 15.9316 58.0404
rclavicle -2.84759e-014 6.36111e-015
rhumerus -37.8893 -11.8918 -76.7216
rradius 26.4924
rwrist 3.67191
rhand -20.0115 14.1442
rfingers 7.12502
rthumb 6.32867 -15.7412
649
root 4.2201 17.7126 18.343 -3.30787 -7.26613 -1.01082
lfemur -3.26442 3.13636 -11.9742
ltibia 61.6889
lfoot 13.4728 0 -14.6471
ltoes -29.1156
rfemur -15.6167 0.203874 28.4377
rtibia 34.3048
rfoot -10.5548 0 -6.7082
rtoes -4.53282
lowerback 10.6162 -1.73721 -2.65752
upperback 0.881357 -2.43401 3.8142
thorax -4.75345 -1.11921 5.86784
lowerneck -11.6687 -8.27651 -17.453
upperneck 19.2477 -11.5676 16.0325
head 10.0299 -5.22582 7.08122
lclavicle -2.89232e-014 -1.11319e-014
lhumerus -35.4919 -0.617611 89.0747
lradius 34.2935
lwrist -2.19938
lhand -10.236 27.4218
lfingers 7.12502
lthumb 15.7564 56.8005
rclavicle -2.89232e-014 -1.11319e-014
rhumerus -37.0359 -10.0253 -77.3357
rradius 27.997
rwrist 3.5294
rhand -20.1778 15.0544
rfingers 7.12502
rthumb 6.16814 -14.8358
650
root 4.02885 17.668 18.8746 -3.79681 -9.40642 -2.41414
lfemur -7.34055 4.62794 -9.26258
ltibia 66.5043
lfoot 9.33183 0 -10.0119
ltoes -25.4784
rfemur -12.8894 2.52355 30.8972
rtibia 34.3017
rfoot -12.3118 0 -7.34373
rtoes -4.74101
lowerback 10.3465 -1.01476 -1.97622
upperback 1.32381 -1.38773 4.13019
thorax -4.27088 -0.631973 5.64632
lowerneck -11.3028 -8.23463 -17.5421
upperneck 18.9592 -11.5441 16.1722
head 9.86921 -5.22688 7.15229
lclavicle 6.50523e-014 -1.59028e-014
lhumerus -36.5904 2.27711 88.2677
lradius 33.7257
lwrist -3.41219
lhand -11.5662 27.061
lfingers 7.12502
lthumb 14.475 56.5361
rclavicle 6.50523e-014 -1.59028e-014
rhumerus -35.3743 -9.17768 -77.5726
rradius 28.669
rwrist 3.5406
rhand -20.1949 14.0486
rfingers 7.12502
rthumb 6.15166 -15.8421
651
root 3.88221 17.6413 19.3679 -3.92787 -10.9411 -2.99073
lfemur -11.4881 4.42426 -8.59982
ltibia 68.7802
lfoot 5.35263 0 -7.84316
ltoes -22.5616
rfemur -10.4335 3.01065 31.9967
rtibia 33.6838
rfoot -13.6158 0 -6.67121
rtoes -5.12272
lowerback 9.99081 -0.492748 -1.59119
upperback 1.66947 -0.664349 4.05768
thorax -3.79692 -0.295018 5.23369
lowerneck -11.8783 -8.36201 -17.3654
upperneck 19.2826 -11.6853 16.0674
head 10.1028 -5.26119 7.05613
lclavicle 4.67144e-015 7.15625e-015
lhumerus -37.2965 5.81885 86.8144
lradius 32.9644
lwrist -2.37116
lhand -11.3927 28.8918
lfingers 7.12502
lthumb 14.6422 58.3549
rclavicle 4.67144e-015 7.15625e-015
rhumerus -33.6017 -9.94908 -77.3842
rradius 29.3572
rwrist 3.72163
rhand -20.6125 13.5706
rfingers 7.12502
rthumb 5.74849 -16.3314
652
root 3.76512 17.6388 19.8892 -4.11767 -12.9756 -3.42937
lfemur -14.6053 3.20031 -8.74507
ltibia 68.0936
lfoot -0.108809 0 -8.62778
ltoes -23.0118
rfemur -7.44834 3.28474 32.6743
rtibia 32.4728
rfoot -14.9821 0 -5.16753
rtoes -5.65927
lowerback 9.76812 0.0429402 -1.0007
upperback 1.49955 0.111866 4.01054
thorax -3.92864 0.0875561 4.74317
lowerneck -11.3967 -8.14887 -17.5847
upperneck 19.7327 -11.4147 15.8285
head 10.1127 -5.19775 7.07543
lclavicle -3.97569e-016 2.14687e-014
lhumerus -38.9882 9.36184 85.2022
lradius 31.2966
lwrist -1.8436
lhand -12.5439 28.9857
lfingers 7.12502
lthumb 13.5328 58.526
rclavicle -3.97569e-016 2.14687e-014
rhumerus -33.2278 -9.80499 -77.0291
rradius 30.7726
rwrist 2.09762
rhand -21.0861 12.9096
rfingers 7.12502
rthumb 5.29117 -17.0043
653
root 3.65312 17.6465 20.3436 -3.93817 -15.2487 -4.48118
lfemur -18.1787 1.93958 -8.22572
ltibia 65.912
lfoot -5.61741 0 -9.87356
ltoes -26.5609
rfemur -5.13507 4.0767 34.0062
rtibia 31.0653
rfoot -15.2897 0 -4.05436
rtoes -5.8297
lowerback 9.40976 0.710662 0.357633
upperback 1.6167 1.12664 4.00467
thorax -3.67176 0.568844 3.82951
lowerneck -11.7039 -8.34746 -17.7995
upperneck 19.4812 -11.6133 16.008
head 10.1504 -5.27494 7.13112
lclavicle 3.99557e-014 2.62396e-014
lhumerus -40.1031 11.844 83.7354
lradius 30.4347
lwrist 0.12025
lhand -11.0605 30.8634
lfingers 7.12502
lthumb 14.9622 60.3029
rclavicle 3.99557e-014 2.62396e-014
rhumerus -31.732 -10.6509 -76.8535
rradius 31.3502
rwrist 0.685599
rhand -21.5477 12.56
rfingers 7.12502
rthumb 4.84553 -17.3646
654
root 3.55399 17.6782 20.8289 -3.74366 -17.7572 -5.15654
lfemur -20.8353 1.0665 -8.25211
ltibia 61.7923
lfoot -7.76453 0 -9.16197
ltoes -22.7879
rfemur -2.38073 4.51662 34.6426
rtibia 29.1979
rfoot -15.7092 0 -2.2464
rtoes -6.0198
lowerback 9.03585 1.30359 1.4818
upperback 1.71256 2.00083 3.86413
thorax -3.37674 0.987062 2.94214
lowerneck -12.9058 -8.52448 -17.4895
upperneck 19.6913 -11.6867 15.7143
head 10.4313 -5.25604 6.92974
lclavicle -8.69683e-014 -4.77083e-015
lhumerus -41.0521 13.9558 82.1639
lradius 28.9607
lwrist 0.111398
lhand -10.3215 31.8641
lfingers 7.12502
lthumb 15.674 61.2492
rclavicle -8.69683e-014 -4.77083e-015
rhumerus -30.4689 -10.0649 -77.3728
rradius 32.71
rwrist -0.798527
rhand -22.0884 11.0405
rfingers 7.12502
rthumb 4.32341 -18.8954
655
root 3.45634 17.7408 21.2911 -2.8602 -19.5013 -5.52598
lfemur -23.5696 -0.137008 -8.76619
ltibia 55.9555
lfoot -9.43446 0 -7.28254
ltoes -23.3379
rfemur -0.00763057 3.8824 34.5126
rtibia 26.1765
rfoot -15.036 0 0.170079
rtoes -5.07651
lowerback 8.51516 1.66285 2.31378
upperback 1.29402 2.54893 3.75319
thorax -3.50313 1.24977 2.30146
lowerneck -12.6152 -8.45716 -18.3356
upperneck 18.9602 -11.4937 16.2828
head 10.1749 -5.19158 7.30617
lclavicle -3.95581e-014 1.27222e-014
lhumerus -42.461 15.1598 81.0852
lradius 27.7454
lwrist -0.994754
lhand -10.6843 30.9798
lfingers 7.12502
lthumb 15.3246 60.392
rclavicle -3.95581e-014 1.27222e-014
rhumerus -29.4804 -9.29146 -77.501
rradius 33.5169
rwrist -1.3293
rhand -22.0561 11.307
rfingers 7.12502
rthumb 4.35461 -18.6282
656
root 3.33052 17.7694 21.7496 -2.01204 -21.7231 -6.72701
lfemur -25.4884 0.18687 -8.19909
ltibia 48.9705
lfoot -11.6121 0 -4.34593
ltoes -30.7031
rfemur 2.3928 3.77778 35.4698
rtibia 23.0393
rfoot -14.2459 0 2.07109
rtoes -3.44099
lowerback 8.00474 1.98933 3.50431
upperback 0.95 3.08321 3.92795
thorax -3.53638 1.49801 1.76855
lowerneck -12.7932 -8.30639 -18.4478
upperneck 18.4582 -11.1481 16.2553
head 9.96781 -5.03284 7.34856
lclavicle 1.13059e-014 -1.59028e-014
lhumerus -43.8881 16.2059 80.0613
lradius 26.877
lwrist -2.34548
lhand -10.7226 30.649
lfingers 7.12502
lthumb 15.2877 60.064
rclavicle 1.13059e-014 -1.59028e-014
rhumerus -28.3093 -8.76076 -77.9031
rradius 34.2253
rwrist -0.947536
rhand -21.5362 11.5352
rfingers 7.12502
rthumb 4.8566 -18.3892
657
root 3.19666 17.8021 22.2142 -0.991604 -23.724 -6.9515
lfemur -26.6719 0.408471 -8.73617
ltibia 40.1075
lfoot -8.96289 0 -1.60564
ltoes -35.3369
rfemur 4.56898 3.743 35.2606
rtibia 20.1043
rfoot -13.9221 0 3.86528
rtoes -2.44214
lowerback 7.844 2.39338 3.82205
upperback 0.419229 3.66372 3.77302
thorax -3.97316 1.77189 1.364
lowerneck -13.209 -8.21194 -18.7739
upperneck 17.972 -10.8829 16.5997
head 9.86771 -4.88204 7.55403
lclavicle -3.35449e-014 -5.96354e-014
lhumerus -44.792 16.3075 79.4165
lradius 25.6274
lwrist -4.1968
lhand -9.85573 30.856
lfingers 7.12502
lthumb 16.1226 60.2054
rclavicle -3.35449e-014 -5.96354e-014
rhumerus -27.764 -7.60097 -78.3721
rradius 35.7541
rwrist -1.69168
rhand -21.1369 10.9031
rfingers 7.12502
rthumb 5.24219 -19.0121
658
root 3.05455 17.8059 22.6196 0.0416112 -24.901 -6.92702
lfemur -27.7774 -0.388975 -9.03374
ltibia 30.888
lfoot -9.4029 0 -1.00573
ltoes -18.4866
rfemur 6.18527 3.87822 35.103
rtibia 17.7124
rfoot -13.3572 0 3.75049
rtoes -1.99925
lowerback 8.2424 2.3235 3.30666
upperback -0.156532 3.58333 3.77818
thorax -4.83061 1.72996 1.63745
lowerneck -14.2557 -8.11247 -18.6312
upperneck 17.8562 -10.4446 16.0923
head 9.89515 -4.66426 7.38045
lclavicle 2.11209e-014 -1.27222e-014
lhumerus -46.0632 16.8251 78.8742
lradius 25.2587
lwrist -4.9641
lhand -11.0478 28.6563
lfingers 7.12502
lthumb 14.9744 58.0949
rclavicle 2.11209e-014 -1.27222e-014
rhumerus -26.9389 -6.43191 -78.9519
rradius 36.9594
rwrist -2.04329
rhand -21.3825 10.8014
rfingers 7.12502
rthumb 5.00498 -19.1195
659
root 2.90744 17.7648 23.1202 0.31368 -26.8928 -6.94107
lfemur -28.3642 -0.587184 -9.35918
ltibia 25.1635
lfoot -11.3761 0 -1.22979
ltoes -18.957
rfemur 9.14563 4.18502 34.6196
rtibia 15.3152
rfoot -13.613 0 5.06201
rtoes -2.48912
lowerback 7.89216 2.52345 3.45234
upperback 0.29198 3.80406 3.53939
thorax -4.13992 1.84321 1.30661
lowerneck -15.7896 -8.06247 -18.2689
upperneck 17.2506 -10.0892 16.0274
head 9.87756 -4.40773 7.30332
lclavicle -3.24764e-014 4.6118e-014
lhumerus -45.3365 16.9443 78.719
lradius 24.4357
lwrist -5.26318
lhand -9.58266 30.2217
lfingers 7.12502
lthumb 16.3855 59.5496
rclavicle -3.24764e-014 4.6118e-014
rhumerus -25.201 -5.76408 -79.8585
rradius 38.0228
rwrist -2.31524
rhand -21.9266 12.4341
rfingers 7.12502
rthumb 4.47969 -17.4985
660
root 2.76069 17.6683 23.6028 0.367346 -27.9299 -7.02677
lfemur -28.9324 0.972576 -10.3081
ltibia 23.9665
lfoot -12.5826 0 -3.69101
ltoes -20.3532
rfemur 11.3426 4.55451 34.3708
rtibia 14.4441
rfoot -13.6606 0 6.01451
rtoes -1.7527
lowerback 8.4635 2.36843 3.46947
upperback 0.262497 3.63171 3.4971
thorax -4.48741 1.75093 1.24718
lowerneck -16.0667 -7.79331 -18.2338
upperneck 16.5334 -9.5763 16.0233
head 9.57757 -4.15164 7.35024
lclavicle -3.98066e-014 1.27222e-014
lhumerus -45.3646 17.4001 78.2238
lradius 23.8631
lwrist -6.79726
lhand -8.25161 31.3407
lfingers 7.12502
lthumb 17.6667 60.5581
rclavicle -3.98066e-014 1.27222e-014
rhumerus -24.5089 -5.35659 -80.2858
rradius 38.4645
rwrist -1.9823
rhand -22.2883 12.7744
rfingers 7.12502
rthumb 4.13035 -17.1653
661
root 2.59877 17.541 24.0802 0.522958 -28.178 -8.00994
lfemur -29.3546 0.918143 -9.84377
ltibia 26.4865
lfoot -10.9596 0 -4.71196
ltoes -19.0505
rfemur 12.3499 5.38306 35.5642
rtibia 15.6187
rfoot -13.8298 0 5.51844
rtoes -6.01375
lowerback 9.11664 2.08182 4.21698
upperback 0.196493 3.37954 3.76129
thorax -4.89807 1.60275 1.11057
lowerneck -16.4676 -7.81022 -18.2981
upperneck 16.14 -9.49403 16.1574
head 9.5122 -4.08566 7.40624
lclavicle -2.83517e-014 -4.45278e-014
lhumerus -44.9785 17.8658 77.7832
lradius 23.8099
lwrist -7.73269
lhand -8.73376 30.6198
lfingers 7.12502
lthumb 17.2027 59.8783
rclavicle -2.83517e-014 -4.45278e-014
rhumerus -24.4501 -5.34484 -80.4523
rradius 39.1811
rwrist -1.9331
rhand -22.11 13.5294
rfingers 7.12502
rthumb 4.30258 -16.4069
662
root 2.4082 17.5269 24.7021 0.252609 -29.0436 -7.63467
lfemur -28.9325 -0.673061 -10.3811
ltibia 29.9031
lfoot -7.30494 0 -3.71663
ltoes -14.8882
rfemur 14.6546 5.87658 34.7399
rtibia 16.0477
rfoot -12.3589 0 6.22976
rtoes -8.13715
lowerback 8.90092 2.28641 3.95615
upperback 0.0176456 3.62292 3.77196
thorax -4.97914 1.72795 1.24097
lowerneck -15.6252 -7.83521 -18.8851
upperneck 15.9624 -9.54854 16.309
head 9.34703 -4.17093 7.56075
lclavicle 3.77939e-014 3.10104e-014
lhumerus -44.969 18.2385 77.5451
lradius 23.3892
lwrist -8.7063
lhand -9.34609 30.776
lfingers 7.12502
lthumb 16.6133 60.0849
rclavicle 3.77939e-014 3.10104e-014
rhumerus -26.3781 -5.20077 -79.8415
rradius 40.0729
rwrist -2.63224
rhand -22.556 12.9513
rfingers 7.12502
rthumb 3.8719 -16.9933
